<svg width="156" height="156" viewBox="0 0 156 156" fill="none" xmlns="http://www.w3.org/2000/svg">
<path d="M43.0668 56H37.2429L50.3288 19.6364H56.6676L69.7536 56H63.9297L53.6491 26.2415H53.3651L43.0668 56ZM44.0433 41.7599H62.9354V46.3764H44.0433V41.7599ZM75.0048 19.6364H81.6632L93.2399 47.9034H93.666L105.243 19.6364H111.901V56H106.681V29.6861H106.344L95.6191 55.9467H91.2868L80.5623 29.6683H80.225V56H75.0048V19.6364Z" fill="black"/>
<path d="M44.995 94V57.6364H67.5447V62.3594H50.4815V73.4389H65.929V78.1442H50.4815V94H44.995ZM79.7784 57.6364V94H74.2919V57.6364H79.7784Z" fill="black"/>
<path d="M44.995 96.6364H51.6534L63.2301 124.903H63.6562L75.233 96.6364H81.8913V133H76.6712V106.686H76.3338L65.6094 132.947H61.277L50.5526 106.668H50.2152V133H44.995V96.6364ZM113.252 96.6364H118.757V120.553C118.757 123.098 118.159 125.353 116.963 127.318C115.768 129.271 114.087 130.81 111.921 131.935C109.754 133.047 107.215 133.604 104.303 133.604C101.403 133.604 98.8702 133.047 96.704 131.935C94.5378 130.81 92.8569 129.271 91.6614 127.318C90.4658 125.353 89.8681 123.098 89.8681 120.553V96.6364H95.3546V120.109C95.3546 121.755 95.7156 123.217 96.4377 124.495C97.1716 125.773 98.2073 126.78 99.5449 127.513C100.883 128.236 102.469 128.597 104.303 128.597C106.15 128.597 107.742 128.236 109.08 127.513C110.429 126.78 111.459 125.773 112.169 124.495C112.891 123.217 113.252 121.755 113.252 120.109V96.6364Z" fill="black"/>
<circle cx="78" cy="78" r="75" stroke="black" stroke-width="5"/>
</svg>
